#!OML:ASF C:\ViconDB\ViconDB\414\Spring2016\041811\Spring2016.ASF
:FULLY-SPECIFIED
:DEGREES
399
root 11.3029 18.6956 -10.0365 720.751 39.2491 360.099
lowerback 5.07272 4.36025 -8.05311
upperback -0.85187 5.1914 -3.59126
thorax -4.11473 2.7268 0.289266
lowerneck -17.8728 -1.95363 -12.674
upperneck 21.1448 -4.05525 21.349
head 10.4532 -0.425877 9.60116
rclavicle -1.0466e-013 8.74653e-014
rhumerus -22.4046 -35.3291 7.07032
rradius 24.8483
rwrist 54.9646
rhand -26.4201 -13.8811
rfingers 7.12502
rthumb 0.139965 -43.8608
lclavicle -1.0466e-013 8.74653e-014
lhumerus -35.4466 -12.2073 -1.72781
lradius 21.5879
lwrist -6.92049
lhand -28.7473 24.1576
lfingers 7.12502
lthumb -2.10761 54.1269
rfemur -24.3927 -202.647 -0.406286
rtibia 34.4001
rfoot -33.4124 -63.4329
rtoes 11.476
lfemur 1.80529 -26.0278 -11.8857
ltibia 39.2852
lfoot -13.8433 5.51732
ltoes -9.59712
400
root 11.3554 18.69 -10.1151 721.267 36.8994 359.94
lowerback 5.19486 4.28064 -7.82466
upperback -0.924126 5.08143 -3.47316
thorax -4.2422 2.67118 0.285065
lowerneck -17.4665 -2.29193 -12.6989
upperneck 20.3893 -4.41995 21.0231
head 10.1713 -0.673983 9.34447
rclavicle -3.02153e-014 2.22639e-014
rhumerus -22.8999 -35.0412 7.3477
rradius 25.0059
rwrist 54.016
rhand -26.4733 -14.2285
rfingers 7.12502
rthumb 0.0886083 -44.2082
lclavicle -3.02153e-014 2.22639e-014
lhumerus -35.5888 -11.7251 -0.961425
lradius 21.2773
lwrist -7.43967
lhand -28.9063 24.486
lfingers 7.12502
lthumb -2.26126 54.4538
rfemur -22.5548 -205.781 -0.336092
rtibia 33.8588
rfoot -42.6948 -64.3028
rtoes 13.3091
lfemur 1.76514 -28.0374 -12.193
ltibia 37.846
lfoot -15.1965 7.06003
ltoes -9.35636
401
root 11.4127 18.6938 -10.1968 721.8 34.729 359.415
lowerback 5.01142 4.13551 -7.48465
upperback -0.916521 4.93169 -3.33908
thorax -4.10244 2.58652 0.270595
lowerneck -17.6733 -2.76578 -13.1859
upperneck 20.054 -5.02313 21.4738
head 10.2519 -0.952277 9.52474
rclavicle -4.51241e-014 1.59028e-015
rhumerus -23.6092 -34.7384 7.34626
rradius 25.1551
rwrist 52.6352
rhand -26.4573 -14.2493
rfingers 7.12502
rthumb 0.104061 -44.229
lclavicle -4.51241e-014 1.59028e-015
lhumerus -35.9029 -11.5261 0.106899
lradius 21.2225
lwrist -7.00059
lhand -29.0988 24.4499
lfingers 7.12502
lthumb -2.44711 54.4156
rfemur -20.373 -209.765 0.385965
rtibia 33.1725
rfoot -53.4281 -65.0488
rtoes 15.426
lfemur 1.13979 -30.0287 -11.8836
ltibia 36.5462
lfoot -16.3258 8.01833
ltoes -9.29378
402
root 11.4811 18.7117 -10.2782 722.512 32.6139 358.962
lowerback 4.52319 4.04489 -7.28226
upperback -0.805144 4.88348 -3.1741
thorax -3.7042 2.54858 0.380558
lowerneck -17.824 -3.26522 -13.5931
upperneck 19.3631 -5.67364 22.0947
head 10.2213 -1.23722 9.72297
rclavicle 2.42517e-014 0
rhumerus -24.5862 -34.3611 7.43592
rradius 25.1566
rwrist 51.7007
rhand -26.7077 -13.1416
rfingers 7.12502
rthumb -0.137768 -43.1213
lclavicle 2.42517e-014 0
lhumerus -36.0141 -11.4594 1.5053
lradius 21.3642
lwrist -5.60735
lhand -28.8962 24.4839
lfingers 7.12502
lthumb -2.25149 54.4518
rfemur -17.8782 -214.757 1.45659
rtibia 32.3768
rfoot -66.5281 -65.0332
rtoes 16.8454
lfemur 0.0457737 -31.5274 -11.3362
ltibia 35.3655
lfoot -17.6436 7.95941
ltoes -9.21465
403
root 11.552 18.7347 -10.3654 723.14 30.6392 358.453
lowerback 4.22442 3.87966 -7.02053
upperback -0.688368 4.71735 -3.01812
thorax -3.39457 2.45299 0.443033
lowerneck -17.9165 -3.8098 -13.7858
upperneck 18.7776 -6.40284 22.4211
head 10.2218 -1.57335 9.74982
rclavicle 1.40938e-013 -9.54166e-015
rhumerus -25.6228 -34.2114 7.3507
rradius 25.0418
rwrist 51.5184
rhand -27.2592 -11.9029
rfingers 7.12502
rthumb -0.670467 -41.8816
lclavicle 1.40938e-013 -9.54166e-015
lhumerus -36.38 -12.0032 3.0582
lradius 21.7678
lwrist -3.22978
lhand -28.6764 23.9492
lfingers 7.12502
lthumb -2.03919 53.9192
rfemur -15.1804 -220.668 3.05848
rtibia 31.5606
rfoot -81.3014 -63.8828
rtoes 19.3269
lfemur -1.20473 -33.2887 -10.714
ltibia 34.3105
lfoot -19.1084 7.78226
ltoes -9.00114
404
root 11.6209 18.7686 -10.4629 723.708 28.5849 357.837
lowerback 4.23639 3.79276 -6.82646
upperback -0.659762 4.61569 -2.79138
thorax -3.36809 2.39861 0.580025
lowerneck -18.0952 -4.33159 -14.2019
upperneck 18.2989 -7.11353 23.0846
head 10.306 -1.87817 9.97476
rclavicle 4.27387e-014 -1.59028e-015
rhumerus -26.4511 -33.163 6.8675
rradius 25.1181
rwrist 50.5868
rhand -27.1137 -11.8681
rfingers 7.12502
rthumb -0.529947 -41.8472
lclavicle 4.27387e-014 -1.59028e-015
lhumerus -36.7016 -12.534 4.65238
lradius 21.9037
lwrist -2.75192
lhand -28.1538 23.6709
lfingers 7.12502
lthumb -1.53449 53.6451
rfemur -11.8895 -227.393 5.67206
rtibia 30.7921
rfoot -96.422 -61.3508
rtoes 21.7381
lfemur -2.87598 -34.0249 -9.63706
ltibia 33.4358
lfoot -20.4737 6.72665
ltoes -9.00966
405
root 11.6882 18.804 -10.5596 724.325 26.5625 357.299
lowerback 4.14042 3.68777 -6.77056
upperback -0.555568 4.49533 -2.66033
thorax -3.20407 2.33272 0.706577
lowerneck -18.1894 -4.82796 -14.7268
upperneck 17.7448 -7.8592 24.2444
head 10.4059 -2.16708 10.4242
rclavicle 3.04141e-014 2.8625e-014
rhumerus -27.438 -32.8486 6.23233
rradius 25.1132
rwrist 50.386
rhand -27.2862 -11.7802
rfingers 7.12502
rthumb -0.69647 -41.7588
lclavicle 3.04141e-014 2.8625e-014
lhumerus -36.744 -12.9551 5.83062
lradius 21.9575
lwrist -2.01692
lhand -27.2925 23.0059
lfingers 7.12502
lthumb -0.702569 52.9845
rfemur -7.35261 -236.452 10.0281
rtibia 30.1827
rfoot -112.167 -56.4856
rtoes 25.7253
lfemur -4.74043 -34.5549 -8.55377
ltibia 32.6606
lfoot -21.7255 5.84303
ltoes -9.44703
